HIERARCHY
ROOT Hips
{
    OFFSET   0.000000   0.000000   0.000000
    CHANNELS 6 Xposition Yposition Zposition Zrotation Xrotation Yrotation
    JOINT Chest
    {
        OFFSET   0.000000   8.007230   0.000000
        CHANNELS 3 Zrotation Xrotation Yrotation
        JOINT Chest2
        {
            OFFSET   0.000000  22.077100   0.000000
            CHANNELS 3 Zrotation Xrotation Yrotation
            JOINT Neck
            {
                OFFSET   0.000000  23.255100   0.000000
                CHANNELS 3 Zrotation Xrotation Yrotation
                JOINT Head
                {
                    OFFSET   0.000000  14.370100   1.956600
                    CHANNELS 3 Zrotation Xrotation Yrotation
                    End Site
                    {
                        OFFSET   0.000000  19.566000   0.000000
                    }
                }
            }
            JOINT LeftCollar
            {
                OFFSET   3.911900  19.017000  -0.467063
                CHANNELS 3 Zrotation Xrotation Yrotation
                JOINT LeftShoulder
                {
                    OFFSET  10.383700   0.000000   0.000000
                    CHANNELS 3 Zrotation Xrotation Yrotation
                    JOINT LeftElbow
                    {
                        OFFSET  26.662100   0.001193   0.000980
                        CHANNELS 3 Zrotation Xrotation Yrotation
                        JOINT LeftWrist
                        {
                            OFFSET  28.869000  -0.000059  -0.000082
                            CHANNELS 3 Zrotation Xrotation Yrotation
                            JOINT LeftFinger0
                            {
                                OFFSET   2.044650  -2.323450   3.252850
                                CHANNELS 3 Zrotation Xrotation Yrotation
                                JOINT LeftFinger01
                                {
                                    OFFSET   3.088130   0.000000   0.000000
                                    CHANNELS 3 Zrotation Xrotation Yrotation
                                    JOINT LeftFinger02
                                    {
                                        OFFSET   2.639460   0.000000   0.000000
                                        CHANNELS 3 Zrotation Xrotation Yrotation
                                        End Site
                                        {
                                            OFFSET   2.582190   0.000000   0.000000
                                        }
                                    }
                                }
                            }
                            JOINT LeftFinger1
                            {
                                OFFSET   8.364480   0.000000   3.252850
                                CHANNELS 3 Zrotation Xrotation Yrotation
                                JOINT LeftFinger11
                                {
                                    OFFSET   4.646930   0.000000   0.000000
                                    CHANNELS 3 Zrotation Xrotation Yrotation
                                    JOINT LeftFinger12
                                    {
                                        OFFSET   2.323470   0.000000   0.000000
                                        CHANNELS 3 Zrotation Xrotation Yrotation
                                        End Site
                                        {
                                            OFFSET   2.273050   0.000000   0.000000
                                        }
                                    }
                                }
                            }
                            JOINT LeftFinger2
                            {
                                OFFSET   8.364490   0.000016   1.078090
                                CHANNELS 3 Zrotation Xrotation Yrotation
                                JOINT LeftFinger21
                                {
                                    OFFSET   5.111610   0.000000   0.000000
                                    CHANNELS 3 Zrotation Xrotation Yrotation
                                    JOINT LeftFinger22
                                    {
                                        OFFSET   2.788150   0.000016   0.000000
                                        CHANNELS 3 Zrotation Xrotation Yrotation
                                        End Site
                                        {
                                            OFFSET   2.727660   0.000000   0.000000
                                        }
                                    }
                                }
                            }
                            JOINT LeftFinger3
                            {
                                OFFSET   7.899780   0.000015  -1.078090
                                CHANNELS 3 Zrotation Xrotation Yrotation
                                JOINT LeftFinger31
                                {
                                    OFFSET   4.646930   0.000000   0.000000
                                    CHANNELS 3 Zrotation Xrotation Yrotation
                                    JOINT LeftFinger32
                                    {
                                        OFFSET   2.323470   0.000000   0.000000
                                        CHANNELS 3 Zrotation Xrotation Yrotation
                                        End Site
                                        {
                                            OFFSET   2.273050   0.000000   0.000000
                                        }
                                    }
                                }
                            }
                            JOINT LeftFinger4
                            {
                                OFFSET   7.435090   0.000000  -3.252850
                                CHANNELS 3 Zrotation Xrotation Yrotation
                                JOINT LeftFinger41
                                {
                                    OFFSET   3.717550   0.000000   0.000000
                                    CHANNELS 3 Zrotation Xrotation Yrotation
                                    JOINT LeftFinger42
                                    {
                                        OFFSET   1.858770   0.000000   0.000000
                                        CHANNELS 3 Zrotation Xrotation Yrotation
                                        End Site
                                        {
                                            OFFSET   1.818440   0.000000   0.000000
                                        }
                                    }
                                }
                            }
                        }
                    }
                }
            }
            JOINT RightCollar
            {
                OFFSET  -3.911910  19.017000  -0.467062
                CHANNELS 3 Zrotation Xrotation Yrotation
                JOINT RightShoulder
                {
                    OFFSET -10.383700   0.000014   0.000000
                    CHANNELS 3 Zrotation Xrotation Yrotation
                    JOINT RightElbow
                    {
                        OFFSET -26.662100   0.001225   0.001091
                        CHANNELS 3 Zrotation Xrotation Yrotation
                        JOINT RightWrist
                        {
                            OFFSET -28.869000  -0.000020  -0.000085
                            CHANNELS 3 Zrotation Xrotation Yrotation
                            JOINT RightFinger0
                            {
                                OFFSET  -2.044650  -2.323490   3.252850
                                CHANNELS 3 Zrotation Xrotation Yrotation
                                JOINT RightFinger01
                                {
                                    OFFSET  -3.088130   0.000000   0.000000
                                    CHANNELS 3 Zrotation Xrotation Yrotation
                                    JOINT RightFinger02
                                    {
                                        OFFSET  -2.639460   0.000000   0.000000
                                        CHANNELS 3 Zrotation Xrotation Yrotation
                                        End Site
                                        {
                                            OFFSET  -2.582190   0.000000   0.000000
                                        }
                                    }
                                }
                            }
                            JOINT RightFinger1
                            {
                                OFFSET  -8.364480   0.000000   3.252850
                                CHANNELS 3 Zrotation Xrotation Yrotation
                                JOINT RightFinger11
                                {
                                    OFFSET  -4.646930   0.000000   0.000000
                                    CHANNELS 3 Zrotation Xrotation Yrotation
                                    JOINT RightFinger12
                                    {
                                        OFFSET  -2.323470   0.000000   0.000000
                                        CHANNELS 3 Zrotation Xrotation Yrotation
                                        End Site
                                        {
                                            OFFSET  -2.273050   0.000000   0.000000
                                        }
                                    }
                                }
                            }
                            JOINT RightFinger2
                            {
                                OFFSET  -8.364480   0.000000   1.078090
                                CHANNELS 3 Zrotation Xrotation Yrotation
                                JOINT RightFinger21
                                {
                                    OFFSET  -5.111620   0.000000   0.000000
                                    CHANNELS 3 Zrotation Xrotation Yrotation
                                    JOINT RightFinger22
                                    {
                                        OFFSET  -2.788160   0.000000   0.000000
                                        CHANNELS 3 Zrotation Xrotation Yrotation
                                        End Site
                                        {
                                            OFFSET  -2.727660   0.000000   0.000000
                                        }
                                    }
                                }
                            }
                            JOINT RightFinger3
                            {
                                OFFSET  -7.899780   0.000000  -1.078090
                                CHANNELS 3 Zrotation Xrotation Yrotation
                                JOINT RightFinger31
                                {
                                    OFFSET  -4.646930   0.000000   0.000000
                                    CHANNELS 3 Zrotation Xrotation Yrotation
                                    JOINT RightFinger32
                                    {
                                        OFFSET  -2.323470   0.000000   0.000000
                                        CHANNELS 3 Zrotation Xrotation Yrotation
                                        End Site
                                        {
                                            OFFSET  -2.273050   0.000000   0.000000
                                        }
                                    }
                                }
                            }
                            JOINT RightFinger4
                            {
                                OFFSET  -7.435090   0.000000  -3.252850
                                CHANNELS 3 Zrotation Xrotation Yrotation
                                JOINT RightFinger41
                                {
                                    OFFSET  -3.717550   0.000000   0.000000
                                    CHANNELS 3 Zrotation Xrotation Yrotation
                                    JOINT RightFinger42
                                    {
                                        OFFSET  -1.858760   0.000000   0.000000
                                        CHANNELS 3 Zrotation Xrotation Yrotation
                                        End Site
                                        {
                                            OFFSET  -1.818440   0.000000   0.000000
                                        }
                                    }
                                }
                            }
                        }
                    }
                }
            }
        }
    }
    JOINT LeftHip
    {
        OFFSET   9.783030   0.000000   0.000000
        CHANNELS 3 Zrotation Xrotation Yrotation
        JOINT LeftKnee
        {
            OFFSET   0.000063 -41.789100   0.000608
            CHANNELS 3 Zrotation Xrotation Yrotation
            JOINT LeftAnkle
            {
                OFFSET   0.000048 -41.133200  -0.000184
                CHANNELS 3 Zrotation Xrotation Yrotation
                JOINT LeftToe
                {
                    OFFSET   0.000000  -6.358960  14.674500
                    CHANNELS 3 Zrotation Xrotation Yrotation
                    End Site
                    {
                        OFFSET   0.000000   0.000000   3.913200
                    }
                }
            }
        }
    }
    JOINT RightHip
    {
        OFFSET  -9.783030   0.000000   0.000000
        CHANNELS 3 Zrotation Xrotation Yrotation
        JOINT RightKnee
        {
            OFFSET   0.000071 -41.789100   0.001239
            CHANNELS 3 Zrotation Xrotation Yrotation
            JOINT RightAnkle
            {
                OFFSET   0.000037 -41.133200  -0.000166
                CHANNELS 3 Zrotation Xrotation Yrotation
                JOINT RightToe
                {
                    OFFSET   0.000000  -6.358960  14.674500
                    CHANNELS 3 Zrotation Xrotation Yrotation
                    End Site
                    {
                        OFFSET   0.000000   0.000000   3.913200
                    }
                }
            }
        }
    }
}
MOTION
Frames: 6
Frame Time:   0.016667
  0.484904  89.643000  -1.118780  -5.058190 -14.272300  -6.523180   0.728972   7.848060   0.448951   1.415340  15.702100   0.807595   1.678860  -2.475690   0.078651   2.773080  -5.007100   0.806199  -5.815530  -2.922820   1.063130 -68.664900  30.742100  -4.222200  -2.259030 -10.575600 -16.244400  16.998000 -15.137100   6.970140  38.411300  32.437600 -60.870100 -33.002500  -0.000082   0.001128 -11.501300   0.000525  -0.003096 -35.414200   7.186720  -9.980720 -29.488400  -0.001416  -0.000894 -20.641900  -0.000349  -0.000626 -29.263200   0.088102  -0.157779 -43.895000   0.000599  -0.002034 -29.234000   0.000486  -0.000845 -28.690000  -0.009310   0.017014 -38.743400  -0.003494  -0.001716 -25.803100  -0.002198  -0.000970 -34.679900  -0.011038   0.015950 -52.019600  -0.000964  -0.000262 -34.645200   0.000000   0.000725   9.070590  -5.077060  10.902400  34.568300  19.395400  55.656800 -34.113500 -17.163800  54.271900  -8.600210 -24.006300 -12.862900 -40.720900  40.088700  83.937000  25.836300   0.009484  -0.007493   7.918130   0.001883  -0.002164  42.298200   2.434050   2.682450  34.654300  -0.007911   0.004807  24.740200   0.005543   0.004604  33.562700  -3.655340  -5.498140  50.608400   0.001349   0.003674  33.705200   0.002036   0.003981  34.607200  -5.241170  -7.540640  52.429200  -0.008509   0.003612  34.917900  -0.004312  -0.001824  47.396300  -6.779550  -6.192440  71.647000  -0.001995  -0.002434  47.717000   0.007113   0.008162   3.402990  16.841700   5.619690   0.787772   0.035292  12.654200  -2.624590  -2.945880   3.090460  -0.000000   0.000000  -0.000000   3.677650  14.386800   0.460141  -0.582181   3.174660 -11.353800  -0.265166  -3.777520   0.709729   0.000000   0.000000   0.000000
  0.484704  89.643900  -1.156120  -4.976770 -14.222400  -6.318230   0.733232   7.847790   0.524636   1.413320  15.701500   0.960486   1.666850  -2.513000   0.078322   2.753310  -5.082780   1.071600  -5.841540  -3.036620   0.951488 -68.632400  30.698100  -4.222660  -2.252270 -10.554300 -16.221500  16.992600 -15.124100   6.979060  38.393900  32.423500 -60.908000 -33.001900  -0.000071   0.001208 -11.501000   0.000574  -0.003100 -35.424900   7.214790 -10.012900 -29.501800  -0.001449  -0.000825 -20.651200  -0.000325  -0.000572 -29.278600   0.106900  -0.190685 -43.918200   0.000569  -0.001971 -29.249500   0.000468  -0.000828 -28.689900   0.000783  -0.001415 -38.781200  -0.003569  -0.001688 -25.828300  -0.002261  -0.000892 -34.707800   0.000939  -0.001410 -52.061600  -0.001024  -0.000213 -34.673100   0.000000   0.000866   9.214850  -5.130100  10.942100  34.853000  19.780400  54.468600 -33.903200 -16.030000  52.697800  -8.643700 -24.672800 -13.147900 -40.177400  39.445400  83.285200  26.311900   0.009828  -0.009193   8.155930   0.002063  -0.001978  42.119700   2.240330   2.487650  34.501500  -0.007877   0.004814  24.598600   0.005580   0.004594  33.362300  -3.652720  -5.519330  50.308000   0.001373   0.003724  33.505100   0.002040   0.003971  34.551500  -5.240500  -7.552430  52.346600  -0.008544   0.003898  34.862800  -0.004316  -0.001650  47.157000  -6.764770  -6.225850  71.288700  -0.001995  -0.002457  47.478300   0.007333   0.008196   3.389390  16.709000   5.594600   0.793988   0.080576  12.532700  -2.643070  -2.930990   3.051550   0.000000   0.000000   0.000000   3.654860  14.308000   0.434402  -0.574462   3.188280 -11.390500  -0.279009  -3.785360   0.582684  -0.000000   0.000000  -0.000000
  0.484440  89.647600  -1.195460  -4.891130 -14.177600  -6.096820   0.737202   7.868750   0.592559   1.411670  15.743900   1.097450   1.663660  -2.564430   0.077985   2.748210  -5.187010   1.359930  -5.883950  -3.189350   0.856157 -68.573300  30.625800  -4.215940  -2.250930 -10.515400 -16.240600  16.974800 -15.082300   6.963350  38.427100  32.467300 -60.926600 -32.988000  -0.000030   0.001285 -11.494100   0.000606  -0.003112 -35.403300   7.227360 -10.037200 -29.487000  -0.001484  -0.000749 -20.640800  -0.000300  -0.000517 -29.267600   0.121358  -0.216428 -43.902000   0.000539  -0.001904 -29.238700   0.000450  -0.000809 -28.689800   0.005813  -0.010522 -38.744600  -0.003644  -0.001661 -25.804000  -0.002320  -0.000808 -34.681700   0.006912  -0.009882 -52.022600  -0.001085  -0.000159 -34.647100   0.000000   0.001007   9.303790  -5.110030  11.020700  35.357100  20.026400  53.245200 -33.741600 -14.718900  51.218700  -8.910440 -25.446900 -13.589100 -39.707900  38.651700  82.337100  26.750200   0.010194  -0.010700   8.375090   0.002236  -0.001879  41.896200   2.019980   2.262780  34.312200  -0.007835   0.004811  24.423500   0.005595   0.004602  33.169300  -3.659070  -5.569230  50.021400   0.001411   0.003779  33.314300   0.002034   0.003965  34.440500  -5.235900  -7.576970  52.181400  -0.008579   0.004188  34.752800  -0.004317  -0.001475  46.890400  -6.749600  -6.268610  70.891500  -0.001990  -0.002474  47.213800   0.007539   0.008254   3.366510  16.589500   5.569610   0.808928   0.101530  12.407800  -2.655130  -2.907170   3.003870   0.000000   0.000000   0.000000   3.625930  14.243100   0.401124  -0.557996   3.185750 -11.442600  -0.292451  -3.793360   0.459604  -0.000000   0.000000  -0.000000
  0.484145  89.653000  -1.232010  -4.806000 -14.142500  -5.872100   0.741544   7.913290   0.653617   1.411410  15.834000   1.220360   1.660600  -2.623130   0.077636   2.743970  -5.305920   1.656960  -5.942390  -3.366350   0.759545 -68.496800  30.547700  -4.203800  -2.253160 -10.469600 -16.271900  16.961400 -15.051500   6.948000  38.458900  32.504300 -60.935900 -32.974700   0.000000   0.001363 -11.487400   0.000640  -0.003122 -35.384600   7.231800 -10.050200 -29.472200  -0.001519  -0.000668 -20.630500  -0.000273  -0.000461 -29.256700   0.128851  -0.229774 -43.885800   0.000511  -0.001834 -29.227900   0.000432  -0.000788 -28.689700   0.007818  -0.014121 -38.708100  -0.003718  -0.001633 -25.779700  -0.002379  -0.000720 -34.655500   0.009296  -0.013188 -51.983600  -0.001146  -0.000104 -34.621100   0.000000   0.001148   9.361320  -5.048390  11.141900  35.952300  20.225000  52.010600 -33.571000 -13.332300  49.741400  -9.340020 -26.337600 -14.142700 -39.368400  37.916500  81.296100  27.179800   0.010589  -0.011974   8.589890   0.002406  -0.001862  41.685200   1.764880   1.993110  34.132300  -0.007795   0.004809  24.257400   0.005612   0.004611  32.999300  -3.666790  -5.617110  49.769400   0.001449   0.003834  33.146500   0.002029   0.003960  34.335800  -5.230520  -7.600930  52.025200  -0.008612   0.004484  34.648800  -0.004319  -0.001290  46.637400  -6.734570  -6.310130  70.514500  -0.001985  -0.002487  46.962600   0.007737   0.008311   3.341350  16.488400   5.545430   0.825119   0.109124  12.286700  -2.662380  -2.877570   2.948580  -0.000000   0.000000   0.000000   3.591050  14.210200   0.380766  -0.533433   3.171390 -11.508900  -0.303306  -3.800530   0.340465  -0.000000   0.000000  -0.000000
  0.483865  89.659700  -1.259800  -4.725640 -14.125800  -5.653510   0.747530   7.968120   0.699850   1.416490  15.944300   1.312840   1.647510  -2.685530   0.077272   2.723030  -5.432330   1.974650  -6.021650  -3.551350   0.668942 -68.410700  30.471000  -4.183270  -2.259570 -10.411300 -16.298400  17.001000 -15.074500   6.968440  38.411300  32.456700 -60.879600 -33.022900   0.000000   0.001441 -11.511500   0.000696  -0.003123 -35.412500   7.206150 -10.005500 -29.490900  -0.001552  -0.000585 -20.643500  -0.000243  -0.000403 -29.267200   0.107924  -0.192397 -43.901400   0.000484  -0.001759 -29.238300   0.000412  -0.000767 -28.689600  -0.017259   0.031694 -38.721100  -0.003790  -0.001604 -25.788300  -0.002439  -0.000632 -34.661900  -0.020486   0.029801 -51.993100  -0.001207  -0.000053 -34.627400   0.000000   0.001289   9.394390  -4.928600  11.337000  36.623300  20.410800  50.764400 -33.357900 -11.871600  48.195400 -10.185300 -27.466700 -14.798400 -39.243900  37.481200  80.265100  27.594000   0.010808  -0.012307   8.797000   0.002574  -0.001902  41.529700   1.418800   1.606710  33.996400  -0.007772   0.004813  24.132300   0.005651   0.004604  32.901800  -3.668220  -5.644960  49.624300   0.001478   0.003885  33.049800   0.002031   0.003948  34.300500  -5.228970  -7.610130  51.972700  -0.008642   0.004788  34.613800  -0.004328  -0.001088  46.454000  -6.719870  -6.337990  70.240500  -0.001987  -0.002491  46.780100   0.007938   0.008346   3.318900  16.422900   5.523240   0.837792   0.096332  12.176100  -2.660260  -2.839540   2.883980   0.000000   0.000000   0.000000   3.551270  14.214700   0.381973  -0.503052   3.135170 -11.594500  -0.310892  -3.805060   0.224530  -0.000000   0.000000   0.000000
  0.483599  89.663900  -1.282530  -4.650030 -14.123700  -5.446440   0.754630   8.036090   0.744916   1.423820  16.080800   1.402690   1.629860  -2.749890   0.076889   2.694890  -5.562700   2.267270  -6.113490  -3.758390   0.572055 -68.310800  30.427900  -4.169410  -2.264450 -10.375400 -16.313400  17.055200 -15.163700   7.014590  38.320600  32.359300 -60.768600 -33.091400   0.000000   0.001520 -11.545700   0.000763  -0.003124 -35.456500   7.165270  -9.934400 -29.520200  -0.001585  -0.000497 -20.664100  -0.000208  -0.000342 -29.286500   0.072003  -0.128288 -43.930200   0.000458  -0.001681 -29.257500   0.000394  -0.000743 -28.689400  -0.056518   0.103397 -38.751000  -0.003861  -0.001574 -25.808200  -0.002497  -0.000540 -34.680600  -0.067102   0.097019 -52.021200  -0.001267   0.000000 -34.646100   0.000000   0.001431   9.401050  -4.793080  11.558300  37.186500  20.685300  49.602100 -33.069000 -10.461800  46.548600 -11.300800 -28.653900 -15.604100 -39.217900  37.183200  79.166300  28.064100   0.011503  -0.012820   9.032060   0.002741  -0.001990  41.460400   1.094900   1.239170  33.931700  -0.007750   0.004816  24.072900   0.005695   0.004598  32.866200  -3.668380  -5.655770  49.571300   0.001501   0.003936  33.014500   0.002033   0.003936  34.295400  -5.228740  -7.611890  51.965200  -0.008674   0.005099  34.608800  -0.004334  -0.000875  46.369700  -6.706320  -6.350230  70.113400  -0.001989  -0.002497  46.695500   0.008132   0.008375   3.299080  16.376700   5.501380   0.845514   0.077068  12.078400  -2.650000  -2.800110   2.814840   0.000000   0.000000   0.000000   3.512350  14.228700   0.385847  -0.471998   3.089930 -11.687500  -0.317791  -3.808490   0.117603   0.000000   0.000000   0.000000
